<svg xmlns="http://www.w3.org/2000/svg" width="67" height="67" viewBox="0 0 67 67" fill="none"><path d="M33.3908 66.7684C51.8321 66.7684 66.7816 51.8218 66.7816 33.3842C66.7816 14.9466 51.8321 0 33.3908 0C14.9496 0 0 14.9466 0 33.3842C0 51.8218 14.9496 66.7684 33.3908 66.7684Z" fill="#2C2C2C"></path><path d="M45.9815 23.1296L44.6632 27.7116H20L21.3182 23.1296H45.9815ZM33.9791 51.9996L20.5093 35.8759L20.472 32.2572H27.1497C28.8176 32.2572 30.229 32.0041 31.3816 31.498C32.5364 30.9897 33.4138 30.255 34.016 29.2896C34.6182 28.3119 34.9182 27.1241 34.9182 25.726C34.9182 23.6482 34.2912 21.9971 33.0372 20.7725C31.7831 19.5478 29.8213 18.9356 27.1499 18.9356H20.0002L21.3743 14.0004H27.1498C30.2601 14.0004 32.8241 14.4882 34.8436 15.4659C36.8633 16.4435 38.3677 17.7987 39.359 19.5295C40.3502 21.2623 40.8448 23.2584 40.8448 25.522C40.8448 27.5385 40.4371 29.3632 39.6218 30.9962C38.8064 32.629 37.5089 33.9598 35.7271 34.9864C33.9475 36.013 31.607 36.613 28.7099 36.7865L28.5422 36.8233L40.845 51.6857V52L33.9791 51.9996ZM46 14L44.6632 18.6209L24.948 18.5086L26.2848 14L46 14Z" fill="white"></path></svg>