<svg xmlns="http://www.w3.org/2000/svg" width="70" height="70" viewBox="0 0 70 70" fill="none"><path d="M34.385 67.9188C52.8262 67.9188 67.7758 52.9722 67.7758 34.5346C67.7758 16.097 52.8262 1.15039 34.385 1.15039C15.9437 1.15039 0.994141 16.097 0.994141 34.5346C0.994141 52.9722 15.9437 67.9188 34.385 67.9188Z" fill="#2C2C2C"></path><path d="M42.3006 27.8332C37.8726 19.7579 35.8369 13.2619 34.64 9.31055C34.6346 9.32888 34.6285 9.34797 34.6232 9.3663C33.4239 13.323 31.3868 19.7953 26.9794 27.834C22.3596 36.2598 19.0781 41.9402 19.0781 46.0214C19.0781 54.6084 26.036 61.5924 34.6224 61.5924H34.6392C43.2333 61.5924 50.2003 54.6137 50.2003 46.0214C50.2003 41.9402 46.9188 36.2598 42.2991 27.834L42.3006 27.8332ZM41.5475 30.2854C46.7416 39.5865 50.0705 47.0829 46.1764 51.4406C46.9333 47.6252 45.3827 39.5292 41.5475 30.2854Z" fill="white"></path><path d="M34.6405 69.2672C29.9649 69.2672 25.4277 68.3515 21.1563 66.5446C17.0307 64.8003 13.3268 62.3031 10.1462 59.123C6.96553 55.943 4.46774 52.2391 2.72311 48.1151C0.916609 43.8445 0 39.3082 0 34.6336C0 29.959 0.915845 25.4227 2.72311 21.1521C4.46774 17.0281 6.96553 13.3242 10.1462 10.1442C13.3268 6.96414 17.0315 4.46686 21.1563 2.72257C25.4277 0.916435 29.9642 0 34.6405 0C39.3167 0 43.8532 0.915671 48.1247 2.72257C52.2494 4.46686 55.9541 6.96414 59.1348 10.1442C62.3154 13.3242 64.8132 17.0281 66.5578 21.1521C68.3643 25.4227 69.2809 29.959 69.2809 34.6336C69.2809 39.3082 68.3651 43.8445 66.5578 48.1151C64.8132 52.2391 62.3154 55.943 59.1348 59.123C55.9541 62.3031 52.2494 64.8003 48.1247 66.5446C43.8532 68.3508 39.3167 69.2672 34.6405 69.2672ZM34.6405 2.97841C17.1827 2.97841 2.979 17.1786 2.979 34.6336C2.979 52.0886 17.1827 66.2888 34.6405 66.2888C52.0982 66.2888 66.3019 52.0886 66.3019 34.6336C66.3019 17.1786 52.099 2.97841 34.6405 2.97841Z" fill="#C7232B"></path><path d="M10.4298 12.8754L7.63086 16.1094L56.6019 58.4762L59.4009 55.2421L10.4298 12.8754Z" fill="#C7232B"></path></svg>