<svg xmlns="http://www.w3.org/2000/svg" width="69" height="69" viewBox="0 0 69 69" fill="none"><path d="M33.3565 66.3991C51.6105 66.3991 66.4083 51.6042 66.4083 33.3538C66.4083 15.1034 51.6105 0.308594 33.3565 0.308594C15.1025 0.308594 0.304688 15.1034 0.304688 33.3538C0.304688 51.6042 15.1025 66.3991 33.3565 66.3991Z" fill="#1F1F1F"></path><path d="M24.4452 48.9688C24.4452 48.9688 20.3918 58.8466 33.4382 63.1525C33.4382 63.1525 37.7449 51.6282 24.4452 48.9688Z" fill="white"></path><path d="M36.5992 63.1525C49.6456 58.8466 45.5929 48.9688 45.5929 48.9688C32.2925 51.6282 36.5992 63.1525 36.5992 63.1525Z" fill="white"></path><path d="M24.8935 38.25C24.8935 38.25 20.9127 47.9518 33.7261 52.1805C33.7261 52.1805 37.9557 40.8618 24.8935 38.25Z" fill="white"></path><path d="M36.8314 52.1805C49.6449 47.9518 45.6641 38.25 45.6641 38.25C32.6018 40.8618 36.8314 52.1805 36.8314 52.1805Z" fill="white"></path><path d="M33.2187 40.2937C33.2187 40.2937 37.1405 29.7982 25.0287 27.377C25.0287 27.377 21.3375 36.3727 33.2187 40.2937Z" fill="white"></path><path d="M44.2888 27.377C32.177 29.799 36.0981 40.2937 36.0981 40.2937C47.9801 36.3727 44.2888 27.377 44.2888 27.377Z" fill="white"></path><path d="M35.0448 16.5293C35.0448 16.5293 26.9864 21.9721 34.7023 31.8197C34.7023 31.8197 43.7845 25.2566 35.0448 16.5293Z" fill="white"></path><path d="M29.2571 5.93555H27.01V23.9186H29.2571V5.93555Z" fill="white"></path><path d="M43.0891 5.93555H40.842V23.9186H43.0891V5.93555Z" fill="white"></path><path d="M36.2239 1.31445H33.9768V13.8979H36.2239V1.31445Z" fill="white"></path><path d="M34.2888 68.5639C29.6607 68.5639 25.1695 67.6575 20.9415 65.869C16.8586 64.1424 13.1915 61.6705 10.0432 58.5227C6.8948 55.375 4.42238 51.7087 2.69547 47.6266C0.90731 43.3994 0 38.9091 0 34.282C0 29.6548 0.906554 25.1645 2.69547 20.9373C4.42238 16.8552 6.8948 13.1889 10.0432 10.0412C13.1915 6.89343 16.8586 4.4215 20.9415 2.69493C25.1703 0.906374 29.6607 0 34.2888 0C38.9168 0 43.408 0.906374 47.6361 2.69493C51.7189 4.4215 55.386 6.89343 58.5344 10.0412C61.6827 13.1889 64.1551 16.8552 65.8821 20.9373C67.6702 25.1645 68.5775 29.6548 68.5775 34.282C68.5775 38.9091 67.671 43.3994 65.8821 47.6266C64.1551 51.7087 61.6827 55.375 58.5344 58.5227C55.386 61.6705 51.7189 64.1424 47.6361 65.869C43.408 67.6568 38.9168 68.5639 34.2888 68.5639ZM34.2888 2.94817C17.0075 2.94817 2.94876 17.0042 2.94876 34.282C2.94876 51.5598 17.0075 65.6157 34.2888 65.6157C51.57 65.6157 65.6288 51.5598 65.6288 34.282C65.6288 17.0042 51.57 2.94817 34.2888 2.94817Z" fill="#C7232B"></path><path d="M10.3214 12.7422L7.55078 15.9434L56.0246 57.88L58.7952 54.6788L10.3214 12.7422Z" fill="#C7232B"></path></svg>