<svg xmlns="http://www.w3.org/2000/svg" width="70" height="70" viewBox="0 0 70 70" fill="none"><path d="M34.385 67.9188C52.8262 67.9188 67.7758 52.9722 67.7758 34.5346C67.7758 16.097 52.8262 1.15039 34.385 1.15039C15.9437 1.15039 0.994141 16.097 0.994141 34.5346C0.994141 52.9722 15.9437 67.9188 34.385 67.9188Z" fill="#2C2C2C"></path><path d="M21.0752 45.2157C20.9612 45.2157 20.8473 45.2157 20.7333 45.2157C20.1066 45.2157 19.4799 44.9877 18.9671 44.475C18.3973 43.9052 18.1694 43.1645 18.2834 42.4238C18.6822 39.3471 20.1066 36.3844 22.3287 34.1623L30.5902 26.0148L29.6216 25.0462C28.3681 23.7927 28.3681 21.7985 29.6216 20.5451C30.8751 19.2916 32.8692 19.2916 34.1227 20.5451L35.3762 21.8555L42.954 14.3347C44.6632 12.6254 47.4551 12.6254 49.1643 14.3347C50.8736 16.044 50.8736 18.8358 49.1643 20.5451L41.6435 28.1229L42.954 29.4333C44.2074 30.6868 44.2074 32.6809 42.954 33.9344C41.7005 35.1879 39.7063 35.1879 38.4529 33.9344L37.4843 32.9658L29.2797 41.1704C27.1146 43.3354 24.2089 44.7598 21.0752 45.2157ZM32.3564 27.781L24.1519 35.9855C22.3287 37.8088 21.1322 40.2018 20.7333 42.6517C23.2973 42.3099 25.6902 41.1134 27.5135 39.2902L35.718 31.1426L32.3564 27.781Z" fill="white"></path><path d="M31.7166 45.6297C31.9473 45.245 32.332 45.0527 32.755 45.0527C33.1781 45.0527 33.6012 45.2835 33.7935 45.6297C34.6012 46.9759 37.2551 51.5144 37.2551 53.5144C37.2551 56.0145 35.2551 58.0145 32.755 58.0145C30.255 58.0145 28.2549 56.0145 28.2549 53.5144C28.2934 51.5144 30.9088 46.9759 31.7166 45.6297ZM33.3704 51.5529C33.4089 51.6298 34.4858 53.3991 33.6781 54.5914C33.5627 54.7452 33.5243 54.9375 33.5627 55.1299C33.6012 55.3222 33.7166 55.476 33.8704 55.5914C33.9858 55.6683 34.1397 55.7068 34.2551 55.7068C34.4858 55.7068 34.7166 55.5914 34.8705 55.3991C36.2166 53.4375 34.6397 50.899 34.5628 50.7836C34.4474 50.6298 34.2935 50.5144 34.1012 50.4759C33.9089 50.4375 33.7166 50.4759 33.5627 50.5528C33.255 50.7836 33.1397 51.2452 33.3704 51.5529Z" fill="white"></path><path d="M34.6405 69.2672C29.9649 69.2672 25.4277 68.3515 21.1563 66.5446C17.0307 64.8003 13.3268 62.3031 10.1462 59.123C6.96553 55.943 4.46774 52.2391 2.72311 48.1151C0.916609 43.8445 0 39.3082 0 34.6336C0 29.959 0.915845 25.4227 2.72311 21.1521C4.46774 17.0281 6.96553 13.3242 10.1462 10.1442C13.3268 6.96414 17.0315 4.46686 21.1563 2.72257C25.4277 0.916435 29.9642 0 34.6405 0C39.3167 0 43.8532 0.915671 48.1247 2.72257C52.2494 4.46686 55.9541 6.96414 59.1348 10.1442C62.3154 13.3242 64.8132 17.0281 66.5578 21.1521C68.3643 25.4227 69.2809 29.959 69.2809 34.6336C69.2809 39.3082 68.3651 43.8445 66.5578 48.1151C64.8132 52.2391 62.3154 55.943 59.1348 59.123C55.9541 62.3031 52.2494 64.8003 48.1247 66.5446C43.8532 68.3508 39.3167 69.2672 34.6405 69.2672ZM34.6405 2.97841C17.1827 2.97841 2.979 17.1786 2.979 34.6336C2.979 52.0886 17.1827 66.2888 34.6405 66.2888C52.0982 66.2888 66.3019 52.0886 66.3019 34.6336C66.3019 17.1786 52.099 2.97841 34.6405 2.97841Z" fill="#C7232B"></path><path d="M10.4298 12.8754L7.63086 16.1094L56.6019 58.4762L59.4009 55.2421L10.4298 12.8754Z" fill="#C7232B"></path></svg>