<svg xmlns="http://www.w3.org/2000/svg" width="70" height="71" viewBox="0 0 70 71" fill="none"><path d="M58.1323 59.1192C71.1477 46.1064 71.1477 25.0084 58.1323 11.9956C45.1169 -1.01723 24.0147 -1.01723 10.9993 11.9956C-2.01607 25.0084 -2.01606 46.1064 10.9993 59.1192C24.0147 72.132 45.1169 72.132 58.1323 59.1192Z" fill="#2C2C2C"></path><path d="M9.43689 36.3955L22.0243 40.2099V54.4588L9.39648 50.0925L9.43689 36.3955Z" fill="#FCFAFC"></path><path d="M34.7028 36.3955L22.1108 40.2099V54.4588L34.7409 50.0925L34.7028 36.3955Z" fill="#E0E0E0"></path><path d="M22.2112 31.2981L34.7026 36.3953L22.1266 41.3919L9.47974 36.3953L22.2112 31.2981Z" fill="#EDEDED"></path><path d="M35.186 36.3955L47.7925 40.2099V54.4588L35.1548 50.0925L35.186 36.3955Z" fill="#FCFAFC"></path><path d="M60.4311 36.3955L47.8391 40.2099V54.4588L60.47 50.0925L60.4311 36.3955Z" fill="#E0E0E0"></path><path d="M47.941 31.2981L60.4315 36.3953L47.8563 41.3919L35.2095 36.3953L47.941 31.2981Z" fill="#EDEDED"></path><path d="M22.3124 22.071L34.9098 25.8854V40.1336L22.2766 35.7681L22.3124 22.071Z" fill="#FCFAFC"></path><path d="M47.5688 22.071L34.9761 25.8854V40.1336L47.6069 35.7681L47.5688 22.071Z" fill="#E0E0E0"></path><path d="M35.0777 16.9736L47.569 22.0716L34.9931 27.0682L22.3462 22.0716L35.0777 16.9736Z" fill="#EDEDED"></path><path d="M34.6788 70.0585C30.0121 70.0585 25.4834 69.1446 21.22 67.3411C17.103 65.6001 13.4053 63.1075 10.2306 59.9335C7.05594 56.7594 4.56286 53.0625 2.82151 48.9463C1.01841 44.6837 0.103516 40.1559 0.103516 35.4901C0.103516 30.8243 1.01765 26.2965 2.82151 22.0339C4.56286 17.9177 7.05594 14.2208 10.2306 11.0467C13.4053 7.87266 17.103 5.38008 21.22 3.63908C25.4834 1.83633 30.0121 0.921631 34.6788 0.921631C39.3456 0.921631 43.8743 1.83557 48.1377 3.63908C52.2547 5.38008 55.9524 7.87266 59.1271 11.0467C62.3017 14.2208 64.7948 17.9177 66.5362 22.0339C68.3393 26.2965 69.2542 30.8243 69.2542 35.4901C69.2542 40.1559 68.34 44.6837 66.5362 48.9463C64.7948 53.0625 62.3017 56.7594 59.1271 59.9335C55.9524 63.1075 52.2547 65.6001 48.1377 67.3411C43.8743 69.1438 39.3456 70.0585 34.6788 70.0585ZM34.6788 3.89444C17.2532 3.89444 3.07692 18.0679 3.07692 35.4901C3.07692 52.9123 17.2532 67.0857 34.6788 67.0857C52.1045 67.0857 66.2808 52.9123 66.2808 35.4901C66.2808 18.0679 52.1045 3.89444 34.6788 3.89444Z" fill="#C7232B"></path><path d="M10.5093 13.7733L7.71558 17.0012L56.5945 59.2883L59.3883 56.0604L10.5093 13.7733Z" fill="#C7232B"></path></svg>